<svg xmlns="http://www.w3.org/2000/svg" xmlns:xlink="http://www.w3.org/1999/xlink" id="processonSvg1000" viewBox="130.0 14.5 703.0 527.5" width="703.0" height="527.5"><defs id="ProcessOnDefs1001"><marker id="ProcessOnMarker1023" markerUnits="userSpaceOnUse" orient="auto" markerWidth="16.23606797749979" markerHeight="10.550836550532098" viewBox="-1.0 -1.3763819204711736 16.23606797749979 10.550836550532098" refX="-1.0" refY="3.8990363547948754"><path id="ProcessOnPath1024" d="M12.0 3.8990363547948754L0.0 7.798072709589751V0.0Z" stroke="#323232" stroke-width="2.0" fill="#323232" transform="matrix(1.0,0.0,0.0,1.0,0.0,0.0)"/></marker><marker id="ProcessOnMarker1031" markerUnits="userSpaceOnUse" orient="auto" markerWidth="16.23606797749979" markerHeight="10.550836550532098" viewBox="-1.0 -1.3763819204711736 16.23606797749979 10.550836550532098" refX="-1.0" refY="3.8990363547948754"><path id="ProcessOnPath1032" d="M12.0 3.8990363547948754L0.0 7.798072709589751V0.0Z" stroke="#323232" stroke-width="2.0" fill="#323232" transform="matrix(1.0,0.0,0.0,1.0,0.0,0.0)"/></marker><marker id="ProcessOnMarker1040" markerUnits="userSpaceOnUse" orient="auto" markerWidth="16.23606797749979" markerHeight="10.550836550532098" viewBox="-1.0 -1.3763819204711736 16.23606797749979 10.550836550532098" refX="-1.0" refY="3.8990363547948754"><path id="ProcessOnPath1041" d="M12.0 3.8990363547948754L0.0 7.798072709589751V0.0Z" stroke="#323232" stroke-width="2.0" fill="#323232" transform="matrix(1.0,0.0,0.0,1.0,0.0,0.0)"/></marker><marker id="ProcessOnMarker1049" markerUnits="userSpaceOnUse" orient="auto" markerWidth="16.23606797749979" markerHeight="10.550836550532098" viewBox="-1.0 -1.3763819204711736 16.23606797749979 10.550836550532098" refX="-1.0" refY="3.8990363547948754"><path id="ProcessOnPath1050" d="M12.0 3.8990363547948754L0.0 7.798072709589751V0.0Z" stroke="#323232" stroke-width="2.0" fill="#323232" transform="matrix(1.0,0.0,0.0,1.0,0.0,0.0)"/></marker><marker id="ProcessOnMarker1057" markerUnits="userSpaceOnUse" orient="auto" markerWidth="16.23606797749979" markerHeight="10.550836550532098" viewBox="-1.0 -1.3763819204711736 16.23606797749979 10.550836550532098" refX="-1.0" refY="3.8990363547948754"><path id="ProcessOnPath1058" d="M12.0 3.8990363547948754L0.0 7.798072709589751V0.0Z" stroke="#323232" stroke-width="2.0" fill="#323232" transform="matrix(1.0,0.0,0.0,1.0,0.0,0.0)"/></marker><marker id="ProcessOnMarker1068" markerUnits="userSpaceOnUse" orient="auto" markerWidth="16.23606797749979" markerHeight="10.550836550532098" viewBox="-1.0 -1.3763819204711736 16.23606797749979 10.550836550532098" refX="-1.0" refY="3.8990363547948754"><path id="ProcessOnPath1069" d="M12.0 3.8990363547948754L0.0 7.798072709589751V0.0Z" stroke="#323232" stroke-width="2.0" fill="#323232" transform="matrix(1.0,0.0,0.0,1.0,0.0,0.0)"/></marker><marker id="ProcessOnMarker1080" markerUnits="userSpaceOnUse" orient="auto" markerWidth="16.23606797749979" markerHeight="10.550836550532098" viewBox="-1.0 -1.3763819204711736 16.23606797749979 10.550836550532098" refX="-1.0" refY="3.8990363547948754"><path id="ProcessOnPath1081" d="M12.0 3.8990363547948754L0.0 7.798072709589751V0.0Z" stroke="#323232" stroke-width="2.0" fill="#323232" transform="matrix(1.0,0.0,0.0,1.0,0.0,0.0)"/></marker><marker id="ProcessOnMarker1091" markerUnits="userSpaceOnUse" orient="auto" markerWidth="16.23606797749979" markerHeight="10.550836550532098" viewBox="-1.0 -1.3763819204711736 16.23606797749979 10.550836550532098" refX="-1.0" refY="3.8990363547948754"><path id="ProcessOnPath1092" d="M12.0 3.8990363547948754L0.0 7.798072709589751V0.0Z" stroke="#323232" stroke-width="2.0" fill="#323232" transform="matrix(1.0,0.0,0.0,1.0,0.0,0.0)"/></marker></defs><g id="ProcessOnG1002"><path id="ProcessOnPath1003" d="M130.0 14.5H833.0V542.0H130.0V14.5Z" fill="none"/><g id="ProcessOnG1004"><g id="ProcessOnG1005" transform="matrix(1.0,0.0,0.0,1.0,644.0,34.5)" opacity="1.0"><g id="ProcessOnG1007" transform="matrix(1.0,0.0,0.0,1.0,0.0,0.0)"> <g> <path fill="#1E3947" d="M33.279,80H2.716C1.197,80,0,78.795,0,77.283V2.718C0,1.197,1.197,0,2.716,0h30.563 C34.793,0,36,1.197,36,2.718v74.565C36,78.705,34.793,80,33.279,80z"/> <rect x="0.081" y="6.398" fill="#DCE9F7" width="35.919" height="0.884"/> <rect x="0.081" y="69.518" fill="#DCE9F7" width="35.918" height="0.884"/> <rect y="51.126" fill="#1A6684" width="36" height="0.481"/> <g> <rect x="5.2" y="11.68" fill="#236A8E" width="25.751" height="3.119"/> <rect x="5.2" y="15.608" fill="#236A8E" width="25.751" height="3.114"/> <rect x="5.833" y="12.877" fill="#DCE9F7" width="4.648" height="0.966"/> <rect x="5.833" y="16.72" fill="#DCE9F7" width="4.648" height="0.953"/> </g> <g> <rect x="5.2" y="20.642" fill="#236A8E" width="25.751" height="3.121"/> <rect x="5.2" y="24.557" fill="#236A8E" width="25.751" height="3.116"/> <rect x="5.833" y="21.841" fill="#DCE9F7" width="4.648" height="0.956"/> <rect x="5.833" y="25.687" fill="#DCE9F7" width="4.648" height="0.953"/> </g> <g> <rect x="5.2" y="31.277" fill="#236A8E" width="25.751" height="3.114"/> <rect x="5.2" y="35.201" fill="#236A8E" width="25.751" height="3.119"/> <rect x="5.833" y="32.483" fill="#DCE9F7" width="4.648" height="0.957"/> <rect x="5.833" y="36.318" fill="#DCE9F7" width="4.648" height="0.964"/> </g> <path opacity="0.62" fill="#FF466A" enable-background="new " d="M31.675,72.958c0.734,0,1.358,0.604,1.358,1.367 c0,0.744-0.624,1.349-1.358,1.349c-0.738,0-1.363-0.604-1.363-1.349C30.312,73.563,30.937,72.958,31.675,72.958z"/> <path opacity="0.62" fill="#43D190" enable-background="new " d="M26.629,72.958c0.759,0,1.364,0.604,1.364,1.367 c0,0.744-0.605,1.349-1.364,1.349c-0.746,0-1.352-0.604-1.352-1.349C25.277,73.563,25.883,72.958,26.629,72.958z"/> <g> <rect x="2.716" y="52.233" fill="#041323" width="1.36" height="16.405"/> <rect x="4.959" y="52.233" fill="#041323" width="1.358" height="16.405"/> <rect x="7.122" y="52.233" fill="#041323" width="1.358" height="16.405"/> <rect x="9.353" y="52.233" fill="#041323" width="1.363" height="16.405"/> <rect x="11.517" y="52.233" fill="#041323" width="1.358" height="16.405"/> <rect x="13.76" y="52.233" fill="#041323" width="1.358" height="16.405"/> <rect x="15.911" y="52.233" fill="#041323" width="1.366" height="16.405"/> <rect x="18.156" y="52.233" fill="#041323" width="1.376" height="16.405"/> <rect x="20.38" y="52.233" fill="#041323" width="1.377" height="16.405"/> <rect x="22.562" y="52.233" fill="#041323" width="1.349" height="16.405"/> <rect x="24.795" y="52.233" fill="#041323" width="1.365" height="16.405"/> <rect x="26.941" y="52.233" fill="#041323" width="1.374" height="16.405"/> <rect x="29.2" y="52.233" fill="#041323" width="1.349" height="16.405"/> <rect x="31.434" y="52.233" fill="#041323" width="1.378" height="16.405"/> </g> </g>  </g><g id="ProcessOnG1008" transform="matrix(1.0,0.0,0.0,1.0,-20.0,86.875)"><text id="ProcessOnText1009" fill="#000000" font-size="13" x="37.0" y="13.325" font-family="微软雅黑" font-weight="normal" font-style="normal" text-decoration="none" family="微软雅黑" text-anchor="middle" size="13">鲍勃</text></g></g><g id="ProcessOnG1010" transform="matrix(1.0,0.0,0.0,1.0,255.0,49.5)" opacity="1.0"><g id="ProcessOnG1012" transform="matrix(1.0,0.0,0.0,1.0,0.0,0.0)"> <g> <g> <path fill="#1B2E3D" d="M75.757,65H49.973c-0.711,0-1.242-0.592-1.242-1.24V1.241C48.73,0.532,49.322,0,49.973,0h25.784 C76.467,0,77,0.591,77,1.241V63.7C77,64.408,76.407,65,75.757,65z"/> <path fill="#D8DDE1" d="M74.279,62.104H51.154c-0.709,0-1.24-0.59-1.24-1.24V2.482c0-0.709,0.592-1.241,1.24-1.241h23.125 c0.709,0,1.24,0.591,1.24,1.241v58.381C75.52,61.574,74.93,62.104,74.279,62.104z"/> <path fill="#36485C" d="M72.801,6.086h-19.93c-0.355,0-0.594-0.296-0.594-0.591V4.787c0-0.354,0.298-0.591,0.594-0.591h19.93 c0.355,0,0.592,0.295,0.592,0.591v0.709C73.393,5.791,73.156,6.086,72.801,6.086z"/> <path fill="#36485C" d="M72.918,14.595h-19.93c-0.355,0-0.592-0.294-0.592-0.59v-2.364c0-0.354,0.297-0.591,0.592-0.591h19.93 c0.355,0,0.592,0.296,0.592,0.591v2.364C73.51,14.301,73.271,14.595,72.918,14.595z"/> <g> <rect x="48.671" y="46.092" fill="#495A5E" width="28.329" height="0.59"/> </g> <g> <rect x="48.671" y="8.272" fill="#495A5E" width="28.329" height="0.591"/> </g> <ellipse fill="#2A6ED1" cx="62.982" cy="34.154" rx="1.539" ry="1.595"/> </g> <path fill="#1B2E3D" d="M31.048,59.386h-4.022c-0.65,0-1.183-0.53-1.183-1.182V51.23c0-0.647,0.533-1.182,1.183-1.182h4.022 c0.65,0,1.182,0.533,1.182,1.182v6.974C32.23,58.855,31.698,59.386,31.048,59.386z"/> <path fill="#324556" d="M57.426,53.771H0.591C0.237,53.771,0,53.477,0,53.182V17.728c0-0.355,0.295-0.591,0.591-0.591h56.834 c0.353,0,0.591,0.295,0.591,0.591v35.454C58.016,53.536,57.777,53.771,57.426,53.771z"/> <path fill="#FFFFFF" d="M56.359,52.59H1.715c-0.355,0-0.592-0.296-0.592-0.59V18.968c0-0.354,0.296-0.591,0.592-0.591h54.645 c0.354,0,0.591,0.295,0.591,0.591V52C56.95,52.294,56.654,52.59,56.359,52.59z"/> <path fill="#324556" d="M42.462,59.979H15.554c-0.237,0-0.414-0.18-0.414-0.414v-0.828c0-0.235,0.177-0.412,0.414-0.412h26.908 c0.237,0,0.413,0.177,0.413,0.412v0.826C42.875,59.799,42.699,59.979,42.462,59.979z"/> </g>  </g><g id="ProcessOnG1013" transform="matrix(1.0,0.0,0.0,1.0,-20.0,71.875)"><text id="ProcessOnText1014" fill="#000000" font-size="13" x="57.5" y="13.325" font-family="微软雅黑" font-weight="normal" font-style="normal" text-decoration="none" family="微软雅黑" text-anchor="middle" size="13">爱丽丝</text></g></g><g id="ProcessOnG1015" transform="matrix(1.0,0.0,0.0,1.0,200.0,162.0)" opacity="1.0"><path id="ProcessOnPath1016" d="M0.0 4.0Q0.0 0.0 4.0 0.0L191.0 0.0Q195.0 0.0 195.0 4.0L195.0 64.0Q195.0 68.0 191.0 68.0L4.0 68.0Q0.0 68.0 0.0 64.0Z" stroke="#323232" stroke-width="2.0" stroke-dasharray="none" opacity="1.0" fill="#ffffff"/><g id="ProcessOnG1017" transform="matrix(1.0,0.0,0.0,1.0,10.0,9.625)"><text id="ProcessOnText1018" fill="#000000" font-size="13" x="86.5" y="13.325" font-family="微软雅黑" font-weight="normal" font-style="normal" text-decoration="none" family="微软雅黑" text-anchor="middle" size="13">客户端随机数Client random</text><text id="ProcessOnText1019" fill="#000000" font-size="13" x="86.5" y="29.575" font-family="微软雅黑" font-weight="normal" font-style="normal" text-decoration="none" family="微软雅黑" text-anchor="middle" size="13">支持SSL协议版本号</text><text id="ProcessOnText1020" fill="#000000" font-size="13" x="86.5" y="45.825" font-family="微软雅黑" font-weight="normal" font-style="normal" text-decoration="none" family="微软雅黑" text-anchor="middle" size="13">支持的加密方法</text></g></g><g id="ProcessOnG1021"><path id="ProcessOnPath1022" d="M395.0 196.0L478.5 196.0L478.5 196.0L546.7639320225002 196.0" stroke="#323232" stroke-width="2.0" stroke-dasharray="none" fill="none" marker-end="url(#ProcessOnMarker1023)"/></g><g id="ProcessOnG1025" transform="matrix(1.0,0.0,0.0,1.0,562.0,181.0)" opacity="1.0"><path id="ProcessOnPath1026" d="M0.0 4.0Q0.0 0.0 4.0 0.0L191.0 0.0Q195.0 0.0 195.0 4.0L195.0 26.0Q195.0 30.0 191.0 30.0L4.0 30.0Q0.0 30.0 0.0 26.0Z" stroke="#323232" stroke-width="2.0" stroke-dasharray="none" opacity="1.0" fill="#ffffff"/><g id="ProcessOnG1027" transform="matrix(1.0,0.0,0.0,1.0,10.0,6.875)"><text id="ProcessOnText1028" fill="#000000" font-size="13" x="86.5" y="13.325" font-family="微软雅黑" font-weight="normal" font-style="normal" text-decoration="none" family="微软雅黑" text-anchor="middle" size="13">客户端随机数</text></g></g><g id="ProcessOnG1029"><path id="ProcessOnPath1030" d="M659.5 211.0L659.5 231.5L659.5 231.5L659.5 236.7639320225002" stroke="#323232" stroke-width="2.0" stroke-dasharray="none" fill="none" marker-end="url(#ProcessOnMarker1031)"/></g><g id="ProcessOnG1033" transform="matrix(1.0,0.0,0.0,1.0,562.0,252.0)" opacity="1.0"><path id="ProcessOnPath1034" d="M0.0 4.0Q0.0 0.0 4.0 0.0L191.0 0.0Q195.0 0.0 195.0 4.0L195.0 42.0Q195.0 46.0 191.0 46.0L4.0 46.0Q0.0 46.0 0.0 42.0Z" stroke="#323232" stroke-width="2.0" stroke-dasharray="none" opacity="1.0" fill="#ffffff"/><g id="ProcessOnG1035" transform="matrix(1.0,0.0,0.0,1.0,10.0,6.75)"><text id="ProcessOnText1036" fill="#000000" font-size="13" x="86.5" y="13.325" font-family="微软雅黑" font-weight="normal" font-style="normal" text-decoration="none" family="微软雅黑" text-anchor="middle" size="13">数字证书(鲍勃公钥)</text><text id="ProcessOnText1037" fill="#000000" font-size="13" x="86.5" y="29.575" font-family="微软雅黑" font-weight="normal" font-style="normal" text-decoration="none" family="微软雅黑" text-anchor="middle" size="13">服务端随机数Server random</text></g></g><g id="ProcessOnG1038"><path id="ProcessOnPath1039" d="M562.0 275.0L478.5 275.0L478.5 275.0L410.2360679774998 275.0" stroke="#323232" stroke-width="2.0" stroke-dasharray="none" fill="none" marker-end="url(#ProcessOnMarker1040)"/></g><g id="ProcessOnG1042" transform="matrix(1.0,0.0,0.0,1.0,200.0,250.0)" opacity="1.0"><path id="ProcessOnPath1043" d="M0.0 4.0Q0.0 0.0 4.0 0.0L191.0 0.0Q195.0 0.0 195.0 4.0L195.0 46.0Q195.0 50.0 191.0 50.0L4.0 50.0Q0.0 50.0 0.0 46.0Z" stroke="#323232" stroke-width="2.0" stroke-dasharray="none" opacity="1.0" fill="#ffffff"/><g id="ProcessOnG1044" transform="matrix(1.0,0.0,0.0,1.0,10.0,8.75)"><text id="ProcessOnText1045" fill="#000000" font-size="13" x="86.5" y="13.325" font-family="微软雅黑" font-weight="normal" font-style="normal" text-decoration="none" family="微软雅黑" text-anchor="middle" size="13">数字证书(鲍勃公钥)</text><text id="ProcessOnText1046" fill="#000000" font-size="13" x="86.5" y="29.575" font-family="微软雅黑" font-weight="normal" font-style="normal" text-decoration="none" family="微软雅黑" text-anchor="middle" size="13">服务端随机数Server random</text></g></g><g id="ProcessOnG1047"><path id="ProcessOnPath1048" d="M297.5 300.0L297.5 320.125L297.5 320.125L297.5 325.0139320225002" stroke="#323232" stroke-width="2.0" stroke-dasharray="none" fill="none" marker-end="url(#ProcessOnMarker1049)"/></g><g id="ProcessOnG1051" transform="matrix(1.0,0.0,0.0,1.0,200.0,340.25)" opacity="1.0"><path id="ProcessOnPath1052" d="M0.0 4.0Q0.0 0.0 4.0 0.0L191.0 0.0Q195.0 0.0 195.0 4.0L195.0 28.0Q195.0 32.0 191.0 32.0L4.0 32.0Q0.0 32.0 0.0 28.0Z" stroke="#323232" stroke-width="2.0" stroke-dasharray="none" opacity="1.0" fill="#ffffff"/><g id="ProcessOnG1053" transform="matrix(1.0,0.0,0.0,1.0,10.0,7.875)"><text id="ProcessOnText1054" fill="#000000" font-size="13" x="86.5" y="13.325" font-family="微软雅黑" font-weight="normal" font-style="normal" text-decoration="none" family="微软雅黑" text-anchor="middle" size="13">Premaster secret</text></g></g><g id="ProcessOnG1055"><path id="ProcessOnPath1056" d="M395.0 356.25L478.5 356.25L478.5 356.25L546.7639320225002 356.25" stroke="#323232" stroke-width="2.0" stroke-dasharray="none" fill="none" marker-end="url(#ProcessOnMarker1057)"/><g id="ProcessOnG1059" transform="matrix(1.0,0.0,0.0,1.0,470.8819660112501,348.125)"><path id="ProcessOnPath1060" d="M0 0H143.00000000000006V16.25H0Z" fill="#fff" transform="matrix(1.0,0.0,0.0,1.0,-71.50000000000003,0.0)"/><text id="ProcessOnText1061" fill="#000000" font-size="13" x="0.0" y="13.325" font-family="微软雅黑" font-weight="normal" font-style="normal" text-decoration="none" family="微软雅黑" text-anchor="middle" size="13">使用公钥加密后的随机数</text></g></g><g id="ProcessOnG1062" transform="matrix(1.0,0.0,0.0,1.0,562.0,338.0)" opacity="1.0"><path id="ProcessOnPath1063" d="M0.0 4.0Q0.0 0.0 4.0 0.0L191.0 0.0Q195.0 0.0 195.0 4.0L195.0 32.5Q195.0 36.5 191.0 36.5L4.0 36.5Q0.0 36.5 0.0 32.5Z" stroke="#323232" stroke-width="2.0" stroke-dasharray="none" opacity="1.0" fill="#ffffff"/><g id="ProcessOnG1064" transform="matrix(1.0,0.0,0.0,1.0,10.0,10.125)"><text id="ProcessOnText1065" fill="#000000" font-size="13" x="86.5" y="13.325" font-family="微软雅黑" font-weight="normal" font-style="normal" text-decoration="none" family="微软雅黑" text-anchor="middle" size="13">Premaster secret(加密后)</text></g></g><g id="ProcessOnG1066"><path id="ProcessOnPath1067" d="M200.0 196.0L151.0 196.0L151.0 430.0L184.7639320225002 430.0" stroke="#323232" stroke-width="2.0" stroke-dasharray="none" fill="none" marker-end="url(#ProcessOnMarker1068)"/></g><g id="ProcessOnG1070"><path id="ProcessOnPath1071" d="M200.0 356.25L176.0 356.25L176.0 356.25L152.0 356.25" stroke="#323232" stroke-width="2.0" stroke-dasharray="none" fill="none"/></g><g id="ProcessOnG1072"><path id="ProcessOnPath1073" d="M200.0 275.0L175.0 275.0L175.0 275.0L150.0 275.0" stroke="#323232" stroke-width="2.0" stroke-dasharray="none" fill="none"/></g><g id="ProcessOnG1074" transform="matrix(1.0,0.0,0.0,1.0,200.0,412.0)" opacity="1.0"><path id="ProcessOnPath1075" d="M0.0 4.0Q0.0 0.0 4.0 0.0L191.0 0.0Q195.0 0.0 195.0 4.0L195.0 32.0Q195.0 36.0 191.0 36.0L4.0 36.0Q0.0 36.0 0.0 32.0Z" stroke="#323232" stroke-width="2.0" stroke-dasharray="none" opacity="1.0" fill="#ffffff"/><g id="ProcessOnG1076" transform="matrix(1.0,0.0,0.0,1.0,10.0,9.875)"><text id="ProcessOnText1077" fill="#000000" font-size="13" x="86.5" y="13.325" font-family="微软雅黑" font-weight="normal" font-style="normal" text-decoration="none" family="微软雅黑" text-anchor="middle" size="13">对话密钥session key</text></g></g><g id="ProcessOnG1078"><path id="ProcessOnPath1079" d="M659.5 374.5L659.5 403.25L659.5 403.25L659.5 416.7639320225002" stroke="#323232" stroke-width="2.0" stroke-dasharray="none" fill="none" marker-end="url(#ProcessOnMarker1080)"/><g id="ProcessOnG1082" transform="matrix(1.0,0.0,0.0,1.0,659.5,387.50696601125014)"><path id="ProcessOnPath1083" d="M0 0H52.0V16.25H0Z" fill="#fff" transform="matrix(1.0,0.0,0.0,1.0,-26.0,0.0)"/><text id="ProcessOnText1084" fill="#000000" font-size="13" x="0.0" y="13.325" font-family="微软雅黑" font-weight="normal" font-style="normal" text-decoration="none" family="微软雅黑" text-anchor="middle" size="13">私钥解密</text></g></g><g id="ProcessOnG1085" transform="matrix(1.0,0.0,0.0,1.0,562.0,432.0)" opacity="1.0"><path id="ProcessOnPath1086" d="M0.0 4.0Q0.0 0.0 4.0 0.0L191.0 0.0Q195.0 0.0 195.0 4.0L195.0 24.0Q195.0 28.0 191.0 28.0L4.0 28.0Q0.0 28.0 0.0 24.0Z" stroke="#323232" stroke-width="2.0" stroke-dasharray="none" opacity="1.0" fill="#ffffff"/><g id="ProcessOnG1087" transform="matrix(1.0,0.0,0.0,1.0,10.0,5.875)"><text id="ProcessOnText1088" fill="#000000" font-size="13" x="86.5" y="13.325" font-family="微软雅黑" font-weight="normal" font-style="normal" text-decoration="none" family="微软雅黑" text-anchor="middle" size="13">Premaster secret</text></g></g><g id="ProcessOnG1089"><path id="ProcessOnPath1090" d="M757.0 196.0L812.0 196.0L812.0 507.5L772.2360679774998 507.5" stroke="#323232" stroke-width="2.0" stroke-dasharray="none" fill="none" marker-end="url(#ProcessOnMarker1091)"/></g><g id="ProcessOnG1093"><path id="ProcessOnPath1094" d="M757.0 275.0L784.0 275.0L784.0 275.0L811.0 275.0" stroke="#323232" stroke-width="2.0" stroke-dasharray="none" fill="none"/></g><g id="ProcessOnG1095"><path id="ProcessOnPath1096" d="M757.0 446.0L785.0 446.0L785.0 446.0L813.0 446.0" stroke="#323232" stroke-width="2.0" stroke-dasharray="none" fill="none"/></g><g id="ProcessOnG1097" transform="matrix(1.0,0.0,0.0,1.0,562.0,493.0)" opacity="1.0"><path id="ProcessOnPath1098" d="M0.0 4.0Q0.0 0.0 4.0 0.0L191.0 0.0Q195.0 0.0 195.0 4.0L195.0 25.0Q195.0 29.0 191.0 29.0L4.0 29.0Q0.0 29.0 0.0 25.0Z" stroke="#323232" stroke-width="2.0" stroke-dasharray="none" opacity="1.0" fill="#ffffff"/><g id="ProcessOnG1099" transform="matrix(1.0,0.0,0.0,1.0,10.0,6.375)"><text id="ProcessOnText1100" fill="#000000" font-size="13" x="86.5" y="13.325" font-family="微软雅黑" font-weight="normal" font-style="normal" text-decoration="none" family="微软雅黑" text-anchor="middle" size="13">对话密钥session key</text></g></g></g></g></svg>